# File produced by Open Asset Import Library (http://www.assimp.sf.net)
# (assimp v4.1.0)

mtllib ddxv0n6p4e8k.mtl

# 101 vertex positions
v  -0.006249963771551847 2.036512469771878e-08 -0.1250000894069672
v  0.2437500059604645 0.75 -0.1249999701976776
v  0.2437500059604645 2.036512469771878e-08 -0.1250000894069672
v  0.2437500059604645 0.75 0.1250000298023224
v  0.2437500059604645 -2.036512469771878e-08 0.1249999105930328
v  -0.006249963771551847 0.75 0.1250000298023224
v  -0.006249963771551847 -2.036512469771878e-08 0.1249999105930328
v  -0.006249963771551847 0.75 -0.1249999701976776
v  0 0 -8.94072584856076e-08
v  -0.02187496051192284 -0.01562497671693563 -0.1406250894069672
v  0.2593750059604645 0.765625 -0.1406249701976776
v  0.2593750059604645 -0.01562497671693563 -0.1406250894069672
v  0.2593750059604645 0.765625 0.1406250298023224
v  0.2593750059604645 -0.01562502235174179 0.1406249105930328
v  -0.02187496051192284 0.765625 0.1406250298023224
v  -0.02187496051192284 -0.01562502235174179 0.1406249105930328
v  -0.02187496051192284 0.765625 -0.1406249701976776
v  -0.2437500059604645 2.036512469771878e-08 -0.1250000894069672
v  0.006249963771551847 0.75 -0.1249999701976776
v  0.006249963771551847 2.036512469771878e-08 -0.1250000894069672
v  0.006249963771551847 0.75 0.1250000298023224
v  0.006249963771551847 -2.036512469771878e-08 0.1249999105930328
v  -0.2437500059604645 0.75 0.1250000298023224
v  -0.2437500059604645 -2.036512469771878e-08 0.1249999105930328
v  -0.2437500059604645 0.75 -0.1249999701976776
v  -0.2593750059604645 -0.01562497671693563 -0.1406250894069672
v  0.02187496051192284 0.765625 -0.1406249701976776
v  0.02187496051192284 -0.01562497671693563 -0.1406250894069672
v  0.02187496051192284 0.765625 0.1406250298023224
v  0.02187496051192284 -0.01562502235174179 0.1406249105930328
v  -0.2593750059604645 0.765625 0.1406250298023224
v  -0.2593750059604645 -0.01562502235174179 0.1406249105930328
v  -0.2593750059604645 0.765625 -0.1406249701976776
v  0.2500001192092896 0.7500000596046448 -0.1249997839331627
v  0.5 1.50000011920929 -0.124999575316906
v  0.5000001192092896 0.7500000596046448 -0.1249997019767761
v  0.4999999403953552 1.50000011920929 0.1250004172325134
v  0.5000000596046448 0.7500000596046448 0.1250002980232239
v  0.2499999403953552 1.5 0.1250003427267075
v  0.2500000596046448 0.7500000596046448 0.1250002235174179
v  0.2500000298023224 1.5 -0.1249996572732925
v  2.086162567138672e-07 0 -2.657384925441875e-07
v  0.2343751490116119 0.7343750596046448 -0.140625074505806
v  0.515625 1.51562511920929 -0.1406248509883881
v  0.5156251192092896 0.7343750596046448 -0.1406249850988388
v  0.5156248807907104 1.51562511920929 0.1406251490116119
v  0.515625 0.7343750596046448 0.1406250149011612
v  0.2343749403953552 1.515625 0.1406250596046448
v  0.2343750596046448 0.7343750596046448 0.140624925494194
v  0.2343750298023224 1.515625 -0.1406249403953552
v  -0.5000001192092896 0.7500001788139343 -0.1249997913837433
v  -0.2499998807907104 1.50000011920929 -0.1249996274709702
v  -0.2500001192092896 0.7500000596046448 -0.1249997541308403
v  -0.2499999105930328 1.50000011920929 0.1250003725290298
v  -0.2500001788139343 0.7500000596046448 0.1250002533197403
v  -0.4999999403953552 1.50000011920929 0.1250003278255463
v  -0.5000001788139343 0.7500001788139343 0.1250002086162567
v  -0.4999998807907104 1.50000011920929 -0.1249996647238731
v  -4.470348358154297e-07 -1.192092895507812e-07 -1.167269090274203e-07
v  -0.5156252384185791 0.7343750596046448 -0.140625074505806
v  -0.2343749403953552 1.515625 -0.1406249105930328
v  -0.2343751937150955 0.7343749403953552 -0.1406250298023224
v  -0.2343749701976776 1.515625 0.1406250894069672
v  -0.2343752235174179 0.7343749403953552 0.1406249701976776
v  -0.515625 1.515625 0.1406250447034836
v  -0.5156252384185791 0.7343750596046448 0.140624925494194
v  -0.515625 1.515625 -0.1406249552965164
v  -0.25 1.5 -0.2499999403953552
v  0.25 2 -0.2499998509883881
v  0.25 1.5 -0.2499999403953552
v  0.25 2 0.2500001490116119
v  0.25 1.5 0.2500000596046448
v  -0.25 2 0.2500001490116119
v  -0.25 1.5 0.2500000596046448
v  -0.25 2 -0.2499998509883881
v  -0.28125 1.46875 -0.2812499403953552
v  0.28125 2.03125 -0.2812498509883881
v  0.28125 1.46875 -0.2812499403953552
v  0.28125 2.03125 0.2812501490116119
v  0.28125 1.46875 0.2812500596046448
v  -0.28125 2.03125 0.2812501490116119
v  -0.28125 1.46875 0.2812500596046448
v  -0.28125 2.03125 -0.2812498509883881
v  0 1.5 6.556709308824793e-08
v  -0.25 0.75 -0.1250000596046448
v  0.25 1.5 -0.1249999329447746
v  0.25 0.75 -0.1250000596046448
v  0.25 1.5 0.1250000596046448
v  0.25 0.75 0.1249999403953552
v  -0.25 1.5 0.1250000596046448
v  -0.25 0.75 0.1249999403953552
v  -0.25 1.5 -0.1249999329447746
v  0 0 -1.788144174952322e-07
v  -0.265625 0.734375 -0.1406250596046448
v  0.265625 1.515625 -0.140624925494194
v  0.265625 0.734375 -0.1406250596046448
v  0.265625 1.515625 0.140625074505806
v  0.265625 0.734375 0.1406249403953552
v  -0.265625 1.515625 0.140625074505806
v  -0.265625 0.734375 0.1406249403953552
v  -0.265625 1.515625 -0.140624925494194

# 125 UV coordinates
vt 0.125 0.5 0
vt 0.0625 0.6875 0
vt 0.0625 0.5 0
vt 0 0.6875 0
vt 0 0.5 0
vt 0.25 0.5 0
vt 0.1875 0.6875 0
vt 0.1875 0.5 0
vt 0.125 0.6875 0
vt 0.0625 0.75 0
vt 0.125 0.75 0
vt 0.1875 0.75 0
vt 0.25 0.6875 0
vt 0 -0.359375 0
vt 0.125 0.25 0
vt 0.0625 0.4375 0
vt 0.0625 0.25 0
vt 0 0.4375 0
vt 0 0.25 0
vt 0.25 0.25 0
vt 0.1875 0.4375 0
vt 0.1875 0.25 0
vt 0.125 0.4375 0
vt 0.25 0.4375 0
vt 0.375 0 0
vt 0.3125 0.1875 0
vt 0.3125 0 0
vt 0.25 0.1875 0
vt 0.25 0 0
vt 0.5 0 0
vt 0.4375 0.1875 0
vt 0.4375 0 0
vt 0.375 0.1875 0
vt 0.3125 0.25 0
vt 0.375 0.25 0
vt 0.4375 0.25 0
vt 0.5 0.1875 0
vt 0.234375 0.25 0
vt 0.125 0 0
vt 0.0625 0.1875 0
vt 0.0625 0 0
vt 0 0.1875 0
vt 0 0 0
vt 0.1875 0.1875 0
vt 0.1875 0 0
vt 0.125 0.1875 0
vt 0.75 0.5 0
vt 0.6875 0.6875 0
vt 0.6875 0.5 0
vt 0.625 0.6875 0
vt 0.625 0.5 0
vt 0.8750001192092896 0.5 0
vt 0.8125 0.6875 0
vt 0.8125 0.5 0
vt 0.75 0.6875 0
vt 0.6875 0.75 0
vt 0.75 0.75 0
vt 0.8125 0.75 0
vt 0.8750001192092896 0.6875 0
vt 0.75 0.25 0
vt 0.6875 0.4375 0
vt 0.6875 0.25 0
vt 0.625 0.4375 0
vt 0.625 0.25 0
vt 0.8750001192092896 0.25 0
vt 0.8125 0.4375 0
vt 0.8125 0.25 0
vt 0.75 0.4375 0
vt 0.8750001192092896 0.4375 0
vt 0.625 0 0
vt 0.5625 0.1875 0
vt 0.5625 0 0
vt 0.75 0 0
vt 0.6875 0.1875 0
vt 0.6875 0 0
vt 0.625 0.1875 0
vt 0.5625 0.25 0
vt 0.75 0.1875 0
vt 0.8750001192092896 0 0
vt 0.8125 0.1875 0
vt 0.8125 0 0
vt 1 0 0
vt 0.9375 0.1875 0
vt 0.9375 0 0
vt 0.8750001192092896 0.1875 0
vt 0.9375 0.25 0
vt 1 0.1875 0
vt 0.25 0.75 0
vt 0.125 0.8750001192092896 0
vt 0 0.8750001192092896 0
vt 0 0.75 0
vt 0.5 0.75 0
vt 0.375 0.8750001192092896 0
vt 0.375 0.75 0
vt 0.25 0.8750001192092896 0
vt 0.125 1 0
vt 0.25 1 0
vt 0.375 1 0
vt 0.5 0.8750001192092896 0
vt 0.625 0.8750001192092896 0
vt 0.625 0.75 0
vt 1 0.75 0
vt 0.8750001192092896 0.8750001192092896 0
vt 0.8750001192092896 0.75 0
vt 0.75 0.8750001192092896 0
vt 0.625 1 0
vt 0.75 1 0
vt 0.8750001192092896 1 0
vt 1 0.8750001192092896 0
vt 0.4375 0.5 0
vt 0.3125 0.6875 0
vt 0.3125 0.5 0
vt 0.5 0.6875 0
vt 0.5 0.5 0
vt 0.4375 0.6875 0
vt 0.3125 0.75 0
vt 0.4375 0.75 0
vt 0.5625 0.75 0
vt 0.5625 0.6875 0
vt 0.3125 0.4375 0
vt 0.5 0.4375 0
vt 0.5 0.25 0
vt 0.4375 0.4375 0
vt 0.5625 0.5 0
vt 0.5625 0.4375 0

# 18 vertex normals
vn 0 1.629209975817503e-07 -1
vn 1 0 0
vn 0 -1.629209975817503e-07 1
vn -1 0 0
vn 0 1 1.629209975817503e-07
vn 0 -1 -1.629209975817503e-07
vn 3.258410004036705e-07 1.629209975817503e-07 -1
vn 1 1.509960014800527e-07 3.258410004036705e-07
vn -3.258410004036705e-07 -1.629209975817503e-07 1
vn -1 -1.509960014800527e-07 -3.258410004036705e-07
vn -1.509960014800527e-07 1 1.629209975817503e-07
vn 1.509960014800527e-07 -1 -1.629209975817503e-07
vn 1.509960014800527e-07 1.629209975817503e-07 -1
vn 1 -3.258410004036705e-07 1.509960014800527e-07
vn -1.509960014800527e-07 -1.629209975817503e-07 1
vn -1 3.258410004036705e-07 -1.509960014800527e-07
vn 3.258410004036705e-07 1 1.629209975817503e-07
vn -3.258410004036705e-07 -1 -1.629209975817503e-07

# Mesh 'rightLeg_001' with 12 faces
g rightLeg_001
usemtl Material_0.001
f  1/1/1 2/2/1 3/3/1
f  3/3/2 4/4/2 5/5/2
f  5/6/3 6/7/3 7/8/3
f  7/8/4 8/9/4 1/1/4
f  4/10/5 8/9/5 6/11/5
f  3/9/6 7/12/6 1/7/6
f  1/1/1 8/9/1 2/2/1
f  3/3/2 2/2/2 4/4/2
f  5/6/3 4/13/3 6/7/3
f  7/8/4 6/7/4 8/9/4
f  4/10/5 2/2/5 8/9/5
f  3/9/6 5/11/6 7/12/6

# Mesh 'rightLegging_001' with 12 faces
g rightLegging_001
usemtl Material_0.001
f  9/14/1 9/14/1 9/14/1
f  9/14/1 9/14/1 9/14/1
f  9/14/3 9/14/3 9/14/3
f  9/14/1 9/14/1 9/14/1
f  9/14/1 9/14/1 9/14/1
f  9/14/1 9/14/1 9/14/1
f  9/14/1 9/14/1 9/14/1
f  9/14/1 9/14/1 9/14/1
f  9/14/3 9/14/3 9/14/3
f  9/14/1 9/14/1 9/14/1
f  9/14/1 9/14/1 9/14/1
f  9/14/1 9/14/1 9/14/1

# Mesh 'rightPants_001' with 12 faces
g rightPants_001
usemtl Material_0.001
f  10/15/1 11/16/1 12/17/1
f  12/17/2 13/18/2 14/19/2
f  14/20/3 15/21/3 16/22/3
f  16/22/4 17/23/4 10/15/4
f  13/3/5 17/23/5 15/1/5
f  12/23/6 16/8/6 10/21/6
f  10/15/1 17/23/1 11/16/1
f  12/17/2 11/16/2 13/18/2
f  14/20/3 13/24/3 15/21/3
f  16/22/4 15/21/4 17/23/4
f  13/3/5 11/16/5 17/23/5
f  12/23/6 14/1/6 16/8/6

# Mesh 'leftLeg_001' with 12 faces
g leftLeg_001
usemtl Material_0.001
f  18/25/1 19/26/1 20/27/1
f  20/27/2 21/28/2 22/29/2
f  22/30/3 23/31/3 24/32/3
f  24/32/4 25/33/4 18/25/4
f  21/34/5 25/33/5 23/35/5
f  20/33/6 24/36/6 18/31/6
f  18/25/1 25/33/1 19/26/1
f  20/27/2 19/26/2 21/28/2
f  22/30/3 21/37/3 23/31/3
f  24/32/4 23/31/4 25/33/4
f  21/34/5 19/26/5 25/33/5
f  20/33/6 22/35/6 24/36/6

# Mesh 'leftLegging_001' with 12 faces
g leftLegging_001
usemtl Material_0.001
f  9/38/1 9/38/1 9/38/1
f  9/38/1 9/38/1 9/38/1
f  9/38/3 9/38/3 9/38/3
f  9/38/1 9/38/1 9/38/1
f  9/38/1 9/38/1 9/38/1
f  9/38/1 9/38/1 9/38/1
f  9/38/1 9/38/1 9/38/1
f  9/38/1 9/38/1 9/38/1
f  9/38/3 9/38/3 9/38/3
f  9/38/1 9/38/1 9/38/1
f  9/38/1 9/38/1 9/38/1
f  9/38/1 9/38/1 9/38/1

# Mesh 'leftPants_001' with 12 faces
g leftPants_001
usemtl Material_0.001
f  26/39/1 27/40/1 28/41/1
f  28/41/2 29/42/2 30/43/2
f  30/29/3 31/44/3 32/45/3
f  32/45/4 33/46/4 26/39/4
f  29/17/5 33/46/5 31/15/5
f  28/46/6 32/22/6 26/44/6
f  26/39/1 33/46/1 27/40/1
f  28/41/2 27/40/2 29/42/2
f  30/29/3 29/28/3 31/44/3
f  32/45/4 31/44/4 33/46/4
f  29/17/5 27/40/5 33/46/5
f  28/46/6 30/15/6 32/22/6

# Mesh 'rightArm_001' with 12 faces
g rightArm_001
usemtl Material_0.001
f  34/47/7 35/48/7 36/49/7
f  36/49/8 37/50/8 38/51/8
f  38/52/9 39/53/9 40/54/9
f  40/54/10 41/55/10 34/47/10
f  37/56/11 41/55/11 39/57/11
f  36/55/12 40/58/12 34/53/12
f  34/47/7 41/55/7 35/48/7
f  36/49/8 35/48/8 37/50/8
f  38/52/9 37/59/9 39/53/9
f  40/54/10 39/53/10 41/55/10
f  37/56/11 35/48/11 41/55/11
f  36/55/12 38/57/12 40/58/12

# Mesh 'rightArmArmor_001' with 12 faces
g rightArmArmor_001
usemtl Material_0.001
f  42/14/7 42/14/7 42/14/7
f  42/14/7 42/14/7 42/14/7
f  42/14/9 42/14/9 42/14/9
f  42/14/7 42/14/7 42/14/7
f  42/14/7 42/14/7 42/14/7
f  42/14/7 42/14/7 42/14/7
f  42/14/7 42/14/7 42/14/7
f  42/14/7 42/14/7 42/14/7
f  42/14/9 42/14/9 42/14/9
f  42/14/7 42/14/7 42/14/7
f  42/14/7 42/14/7 42/14/7
f  42/14/7 42/14/7 42/14/7

# Mesh 'rightSleeve_001' with 12 faces
g rightSleeve_001
usemtl Material_0.001
f  43/60/7 44/61/7 45/62/7
f  45/62/8 46/63/8 47/64/8
f  47/65/9 48/66/9 49/67/9
f  49/67/10 50/68/10 43/60/10
f  46/49/11 50/68/11 48/47/11
f  45/68/12 49/54/12 43/66/12
f  43/60/7 50/68/7 44/61/7
f  45/62/8 44/61/8 46/63/8
f  47/65/9 46/69/9 48/66/9
f  49/67/10 48/66/10 50/68/10
f  46/49/11 44/61/11 50/68/11
f  45/68/12 47/47/12 49/54/12

# Mesh 'leftArm_001' with 12 faces
g leftArm_001
usemtl Material_0.001
f  51/70/13 52/71/13 53/72/13
f  53/72/14 54/37/14 55/30/14
f  55/73/15 56/74/15 57/75/15
f  57/75/16 58/76/16 51/70/16
f  54/77/17 58/76/17 56/64/17
f  53/76/18 57/62/18 51/74/18
f  51/70/13 58/76/13 52/71/13
f  53/72/14 52/71/14 54/37/14
f  55/73/15 54/78/15 56/74/15
f  57/75/16 56/74/16 58/76/16
f  54/77/17 52/71/17 58/76/17
f  53/76/18 55/64/18 57/62/18

# Mesh 'leftArmArmor_001' with 12 faces
g leftArmArmor_001
usemtl Material_0.001
f  59/14/13 59/14/13 59/14/13
f  59/14/13 59/14/13 59/14/13
f  59/14/15 59/14/15 59/14/15
f  59/14/13 59/14/13 59/14/13
f  59/14/13 59/14/13 59/14/13
f  59/14/13 59/14/13 59/14/13
f  59/14/13 59/14/13 59/14/13
f  59/14/13 59/14/13 59/14/13
f  59/14/15 59/14/15 59/14/15
f  59/14/13 59/14/13 59/14/13
f  59/14/13 59/14/13 59/14/13
f  59/14/13 59/14/13 59/14/13

# Mesh 'leftSleeve_001' with 12 faces
g leftSleeve_001
usemtl Material_0.001
f  60/79/13 61/80/13 62/81/13
f  62/81/14 63/78/14 64/73/14
f  64/82/15 65/83/15 66/84/15
f  66/84/16 67/85/16 60/79/16
f  63/67/17 67/85/17 65/65/17
f  62/85/18 66/86/18 60/83/18
f  60/79/13 67/85/13 61/80/13
f  62/81/14 61/80/14 63/78/14
f  64/82/15 63/87/15 65/83/15
f  66/84/16 65/83/16 67/85/16
f  63/67/17 61/80/17 67/85/17
f  62/85/18 64/65/18 66/86/18

# Mesh 'head_001' with 12 faces
g head_001
usemtl Material_0.001
f  68/88/1 69/89/1 70/11/1
f  70/11/2 71/90/2 72/91/2
f  72/92/3 73/93/3 74/94/3
f  74/94/4 75/95/4 68/88/4
f  71/96/5 75/95/5 73/97/5
f  70/95/6 74/98/6 68/93/6
f  68/88/1 75/95/1 69/89/1
f  70/11/2 69/89/2 71/90/2
f  72/92/3 71/99/3 73/93/3
f  74/94/4 73/93/4 75/95/4
f  71/96/5 69/89/5 75/95/5
f  70/95/6 72/97/6 74/98/6

# Mesh 'hat_001' with 12 faces
g hat_001
usemtl Material_0.001
f  76/57/1 77/100/1 78/101/1
f  78/101/2 79/99/2 80/92/2
f  80/102/3 81/103/3 82/104/3
f  82/104/4 83/105/4 76/57/4
f  79/106/5 83/105/5 81/107/5
f  78/105/6 82/108/6 76/103/6
f  76/57/1 83/105/1 77/100/1
f  78/101/2 77/100/2 79/99/2
f  80/102/3 79/109/3 81/103/3
f  82/104/4 81/103/4 83/105/4
f  79/106/5 77/100/5 83/105/5
f  78/105/6 80/107/6 82/108/6

# Mesh 'helmet_001' with 12 faces
g helmet_001
usemtl Material_0.001
f  84/14/1 84/14/1 84/14/1
f  84/14/1 84/14/1 84/14/1
f  84/14/3 84/14/3 84/14/3
f  84/14/1 84/14/1 84/14/1
f  84/14/1 84/14/1 84/14/1
f  84/14/1 84/14/1 84/14/1
f  84/14/1 84/14/1 84/14/1
f  84/14/1 84/14/1 84/14/1
f  84/14/3 84/14/3 84/14/3
f  84/14/1 84/14/1 84/14/1
f  84/14/1 84/14/1 84/14/1
f  84/14/1 84/14/1 84/14/1

# Mesh 'body_001' with 12 faces
g body_001
usemtl Material_0.001
f  85/110/1 86/111/1 87/112/1
f  87/112/2 88/13/2 89/6/2
f  89/51/3 90/113/3 91/114/3
f  91/114/4 92/115/4 85/110/4
f  88/116/5 92/115/5 90/117/5
f  87/115/6 91/118/6 85/119/6
f  85/110/1 92/115/1 86/111/1
f  87/112/2 86/111/2 88/13/2
f  89/51/3 88/50/3 90/113/3
f  91/114/4 90/113/4 92/115/4
f  88/116/5 86/111/5 92/115/5
f  87/115/6 89/117/6 91/118/6

# Mesh 'bodyArmor_001' with 12 faces
g bodyArmor_001
usemtl Material_0.001
f  93/88/1 93/88/1 93/88/1
f  93/88/1 93/88/1 93/88/1
f  93/88/3 93/88/3 93/88/3
f  93/88/1 93/88/1 93/88/1
f  93/88/1 93/88/1 93/88/1
f  93/88/1 93/88/1 93/88/1
f  93/88/1 93/88/1 93/88/1
f  93/88/1 93/88/1 93/88/1
f  93/88/3 93/88/3 93/88/3
f  93/88/1 93/88/1 93/88/1
f  93/88/1 93/88/1 93/88/1
f  93/88/1 93/88/1 93/88/1

# Mesh 'belt_001' with 12 faces
g belt_001
usemtl Material_0.001
f  93/88/1 93/88/1 93/88/1
f  93/88/1 93/88/1 93/88/1
f  93/88/3 93/88/3 93/88/3
f  93/88/1 93/88/1 93/88/1
f  93/88/1 93/88/1 93/88/1
f  93/88/1 93/88/1 93/88/1
f  93/88/1 93/88/1 93/88/1
f  93/88/1 93/88/1 93/88/1
f  93/88/3 93/88/3 93/88/3
f  93/88/1 93/88/1 93/88/1
f  93/88/1 93/88/1 93/88/1
f  93/88/1 93/88/1 93/88/1

# Mesh 'jacket_001' with 12 faces
g jacket_001
usemtl Material_0.001
f  94/36/1 95/120/1 96/34/1
f  96/34/2 97/24/2 98/20/2
f  98/64/3 99/121/3 100/122/3
f  100/122/4 101/123/4 94/36/4
f  97/112/5 101/123/5 99/110/5
f  96/123/6 100/124/6 94/125/6
f  94/36/1 101/123/1 95/120/1
f  96/34/2 95/120/2 97/24/2
f  98/64/3 97/63/3 99/121/3
f  100/122/4 99/121/4 101/123/4
f  97/112/5 95/120/5 101/123/5
f  96/123/6 98/110/6 100/124/6

